<svg width="24" height="24" viewBox="0 0 24 24" fill="none" xmlns="http://www.w3.org/2000/svg">
<path d="M19.6706 4.60293C18.1896 3.92338 16.6014 3.42272 14.9409 3.13597C14.9106 3.13044 14.8804 3.14427 14.8649 3.17193C14.6606 3.5352 14.4344 4.00913 14.2759 4.38163C12.4899 4.11425 10.7131 4.11425 8.96376 4.38163C8.8053 4.00085 8.57082 3.5352 8.36568 3.17193C8.35008 3.14519 8.31984 3.13136 8.2896 3.13597C6.63 3.4218 5.04187 3.92247 3.55994 4.60293C3.54711 4.60846 3.53612 4.61769 3.52882 4.62967C0.51642 9.13014 -0.308802 13.52 0.0960245 17.8554C0.0978563 17.8766 0.109763 17.8969 0.126249 17.9098C2.11374 19.3693 4.03897 20.2554 5.92845 20.8428C5.95869 20.852 5.99073 20.8409 6.00996 20.816C6.45696 20.2057 6.85536 19.5621 7.19694 18.8853C7.2171 18.8456 7.1979 18.7986 7.15668 18.7829C6.5247 18.5432 5.92295 18.2509 5.3441 17.919C5.29832 17.8923 5.29465 17.8268 5.33677 17.7954C5.45858 17.7041 5.58043 17.6092 5.69674 17.5133C5.71778 17.4958 5.74711 17.4921 5.77185 17.5031C9.57462 19.2394 13.6916 19.2394 17.4495 17.5031C17.4742 17.4912 17.5036 17.4949 17.5255 17.5124C17.6419 17.6083 17.7637 17.7041 17.8864 17.7954C17.9285 17.8268 17.9258 17.8923 17.88 17.919C17.3011 18.2574 16.6994 18.5432 16.0665 18.782C16.0253 18.7977 16.007 18.8456 16.0271 18.8853C16.3761 19.5611 16.7745 20.2047 17.2132 20.8151C17.2315 20.8409 17.2645 20.852 17.2947 20.8428C19.1934 20.2554 21.1186 19.3693 23.1061 17.9098C23.1235 17.8969 23.1345 17.8775 23.1363 17.8563C23.6208 12.8441 22.3248 8.49024 19.7008 4.63058C19.6944 4.61769 19.6834 4.60846 19.6706 4.60293ZM7.76484 15.2156C6.61992 15.2156 5.67658 14.1645 5.67658 12.8736C5.67658 11.5828 6.60168 10.5316 7.76484 10.5316C8.93718 10.5316 9.87138 11.592 9.85308 12.8736C9.85308 14.1645 8.928 15.2156 7.76484 15.2156ZM15.4858 15.2156C14.341 15.2156 13.3976 14.1645 13.3976 12.8736C13.3976 11.5828 14.3226 10.5316 15.4858 10.5316C16.6582 10.5316 17.5924 11.592 17.5741 12.8736C17.5741 14.1645 16.6582 15.2156 15.4858 15.2156Z" fill="white"/>
</svg>
