<svg width="203" height="48" viewBox="0 0 203 48" fill="none" xmlns="http://www.w3.org/2000/svg">
<path fill-rule="evenodd" clip-rule="evenodd" d="M41.9981 23.7354C41.9994 23.8237 42 23.912 42 24.0003C42 33.935 33.9344 42 23.9997 42C19.4913 42 15.368 40.3394 12.209 37.5968L12.2071 37.595L12.204 37.5924L12.1821 37.573L12.1665 37.5599L12.1627 37.5561L12.1577 37.5524L12.1414 37.538L12.1239 37.5223L12.1182 37.5173L12.1132 37.5129L12.1007 37.5023L12.0813 37.4847L12.0738 37.4779L12.0694 37.4741L12.0606 37.466L12.0393 37.4472L12.0293 37.4384L12.0256 37.4353L12.0199 37.4303L11.9968 37.4096L11.9855 37.399L11.983 37.3971L11.9799 37.3946L11.9535 37.3708L11.941 37.3595L11.9398 37.3583C11.9266 37.3464 11.9129 37.3338 11.8997 37.3219L11.8972 37.3201L11.8734 37.2981L11.8596 37.2856L11.8584 37.2844L11.8534 37.28L11.8308 37.2593L11.8202 37.2487L11.8171 37.2468L11.8102 37.2399L11.7889 37.2205L11.7801 37.2124L11.7764 37.2092L11.7663 37.1998L11.7475 37.1823L11.7407 37.1754L11.7363 37.1717L11.7231 37.1591L11.7062 37.1435L11.7012 37.1385L11.6968 37.1347L11.6799 37.1191L11.6649 37.1047L11.6618 37.1015L11.658 37.0978L11.6367 37.0784L11.6236 37.0658L11.6223 37.0646L11.6204 37.0627C9.58353 35.1316 7.99745 32.7303 7.03691 30.0328L7.02878 30.0083L7.01877 29.9814L7.01814 29.9789L7.01752 29.977L7.00811 29.9514L7.00061 29.9288L6.99998 29.9276L6.99935 29.9251L6.9887 29.8944L6.98245 29.8756L6.98119 29.8737C6.93987 29.7535 6.8998 29.6333 6.86097 29.5118L6.85972 29.5087L6.85909 29.5074L6.85471 29.4924L6.84469 29.4611L6.84281 29.4561L6.84156 29.4529L6.83592 29.4348L6.82779 29.4091L6.82591 29.4035L6.82465 29.3985L6.81776 29.3772L6.81088 29.3553L6.80962 29.3502L6.80774 29.3446L6.79961 29.3189L6.7946 29.3014L6.79334 29.2977L6.79084 29.2908L6.78208 29.2607L6.77769 29.2469L6.77706 29.2444L6.77518 29.2388L6.76454 29.2025L6.76078 29.1906C6.73949 29.1205 6.71883 29.0497 6.69817 28.9796L6.69566 28.9696L6.68565 28.9339L6.68314 28.9257L6.68251 28.9232L6.67875 28.9113L6.67062 28.8819L6.66811 28.8725L6.66686 28.8675L6.66247 28.8525L6.65559 28.828L6.65308 28.8186L6.6512 28.8118L6.64619 28.7936L6.64056 28.7736L6.63806 28.7654L6.63618 28.7566L6.62991 28.7354L6.62554 28.7185L6.62366 28.7116L6.62115 28.7009L6.61425 28.6765L6.61051 28.6627L6.60926 28.6577L6.60612 28.6464L6.5986 28.617L6.59548 28.607L6.59486 28.6039L6.59235 28.5932L6.58295 28.5582L6.58108 28.5507L6.56729 28.4993C6.56228 28.4799 6.55727 28.4599 6.55227 28.4404L6.541 28.3947L6.53912 28.3885V28.3878L6.53724 28.3809L6.5291 28.3478L6.52597 28.3346L6.52534 28.3315L6.52284 28.3215L6.51596 28.2945L6.51282 28.2801L6.51157 28.2745L6.50844 28.262L6.50281 28.2394L6.49968 28.2263L6.4978 28.2182L6.49404 28.2031L6.48902 28.1831L6.48653 28.1718L6.48402 28.1612L6.47964 28.143L6.47587 28.1274L6.47337 28.1173L6.47088 28.1048L6.46586 28.0835L6.46273 28.0704L6.46085 28.0635L6.45771 28.0478L6.45209 28.024L6.44958 28.014L6.44833 28.009L6.44457 27.9921L6.43831 27.9646L6.43706 27.957L6.43643 27.9545L6.43267 27.937L6.42515 27.9044L6.41201 27.8443L6.40325 27.8049L6.40011 27.7905V27.7892L6.39886 27.7842L6.39261 27.7548L6.38884 27.7354L6.38759 27.7323L6.38634 27.7241L6.3807 27.6991L6.37695 27.6809L6.3757 27.6746L6.37382 27.6646L6.36943 27.6427L6.36567 27.6258L6.36379 27.617L6.3613 27.6039L6.35754 27.5857L6.3544 27.5707L6.35252 27.5594L6.34939 27.5438L6.34627 27.5281L6.34376 27.5162L6.34063 27.5018L6.33687 27.4837L6.33436 27.4705L6.33248 27.4611L6.32936 27.4436L6.3256 27.4229L6.32372 27.4129L6.32184 27.406L6.31808 27.386L6.31371 27.3628L6.31245 27.3553L6.31183 27.3509L6.30744 27.3278L6.30243 27.3021L6.3018 27.2977L6.30117 27.2952L6.29617 27.2689L6.29116 27.2413L6.28677 27.2163L6.28115 27.185V27.1837L6.28052 27.1806L6.27613 27.1556L6.27112 27.1292L6.27049 27.1255L6.26986 27.1199L6.26549 27.0967L6.26173 27.0742L6.26048 27.0673L6.25922 27.0591L6.25546 27.0385L6.25235 27.0184L6.25047 27.009L6.24859 26.9984L6.24545 26.9802L6.24294 26.9627L6.24106 26.9508L6.23856 26.937L6.23606 26.922L6.23356 26.907L6.23105 26.8919L6.22854 26.8763L6.22666 26.8631L6.22478 26.8512L6.22165 26.8331L6.21916 26.8149L6.21728 26.8049L6.21602 26.7955L6.21289 26.7742L6.20913 26.7536L6.2085 26.746L6.20725 26.7398L6.2035 26.7147L6.20037 26.6928L6.19974 26.6878L6.19912 26.6841L6.1941 26.6527L6.19097 26.6315V26.6289C6.18784 26.6102 6.18534 26.5908 6.18221 26.5713V26.5701L6.17907 26.55L6.17469 26.5162L6.17408 26.5125L6.17345 26.5087L6.17031 26.4874L6.16655 26.4599L6.16593 26.4536L6.16467 26.4467L6.16217 26.4273L6.15903 26.4042L6.15779 26.3948L6.15654 26.3854L6.15403 26.3678L6.15153 26.3478L6.15027 26.3353L6.14839 26.324L6.14651 26.3084L6.14463 26.2915L6.14277 26.2764L6.14089 26.262L6.13901 26.2489L6.13713 26.2351L6.13525 26.2169L6.13337 26.2L6.13211 26.1894L6.13023 26.1787L6.12772 26.1568L6.12586 26.1387L6.12461 26.1305L6.12398 26.1224L6.12085 26.0961L6.11834 26.0767L6.11771 26.071L6.11708 26.066L6.11332 26.0335L6.11146 26.0147L6.11083 26.0116V26.0091L6.10519 25.9558L6.10456 25.9527L6.10394 25.9439L6.0983 25.8963V25.8932L6.09767 25.8901L6.0958 25.8713L6.09267 25.8394L6.09204 25.8337L6.09142 25.8281L6.08954 25.8093L6.08703 25.783L6.0864 25.7742L6.08515 25.7661L6.0839 25.7479L6.08139 25.726L6.08076 25.7141L6.07952 25.7035L6.07827 25.6878L6.07639 25.669L6.07514 25.6546L6.07388 25.6415L6.07263 25.6277L6.07138 25.6121L6.0695 25.5945L6.06824 25.5789L6.06699 25.5676L6.06636 25.5551L6.0645 25.5338L6.06262 25.5163L6.06199 25.5081L6.06136 25.4987L6.05948 25.4731L6.0576 25.4543V25.448L6.05698 25.4411L6.05447 25.4104L6.05259 25.3916V25.3879L6.05196 25.3841L6.04884 25.3403L6.04822 25.329V25.3278C6.04696 25.3077 6.04508 25.2877 6.04383 25.2683V25.2658L6.04257 25.2495L6.04007 25.2126L6.03944 25.2082V25.2032L6.03819 25.1844L6.03631 25.1556L6.03568 25.1474L6.03505 25.1406L6.03443 25.1224L6.03256 25.098L6.03193 25.0873L6.03131 25.0773L6.03068 25.061L6.02943 25.041L6.0288 25.0266L6.02817 25.0147L6.02692 25.0003L6.02629 24.9834L6.02504 24.9659L6.02441 24.9515L6.02379 24.9396L6.02316 24.9258L6.02191 24.9051L6.02128 24.8888L6.02065 24.8794V24.8682L6.0194 24.8438L6.01815 24.8256V24.8187L6.01753 24.8106L6.01628 24.7811L6.01565 24.7624V24.758L6.01503 24.753L6.01377 24.7148L6.01315 24.6991V24.6972C6.01252 24.6772 6.01127 24.6572 6.01064 24.6371V24.6359V24.624L6.00876 24.5801V24.5764V24.5726L6.00813 24.5545L6.00688 24.5225V24.5156V24.5094L6.00625 24.4906L6.00563 24.4643V24.4543L6.005 24.4455V24.4286L6.00437 24.4067L6.00375 24.3935V24.3823L6.00312 24.3673V24.3485L6.00249 24.3322V24.3184V24.3059L6.00188 24.2909V24.2708L6.00125 24.2552V24.2445V24.2326V24.2088L6.00063 24.1913V24.1838V24.1744V24.1462L6 24.1281V24.1224V24.1168V24.0817V24.0642V24.061C6 24.0416 6 24.021 6 24.0003C6 23.979 6 23.9584 6 23.939V23.9364V23.9189V23.8839V23.8782V23.8726L6.00063 23.8538V23.8256V23.8169V23.8087L6.00125 23.7912V23.768V23.7555V23.7455L6.00188 23.7292V23.7098L6.00249 23.6948V23.6816V23.6678L6.00312 23.6515V23.6334L6.00375 23.6184V23.6071L6.00437 23.5939L6.005 23.572V23.5545L6.00563 23.5457V23.5357L6.00625 23.5094L6.00688 23.4913V23.485V23.4781L6.00813 23.4462L6.00876 23.428V23.4242V23.4205L6.01064 23.376V23.3648V23.3635C6.01127 23.3435 6.01252 23.3228 6.01315 23.3028V23.3015L6.01377 23.2859L6.01503 23.247L6.01565 23.2427V23.2383L6.01628 23.2195L6.01753 23.1894L6.01815 23.1819V23.175L6.0194 23.1569L6.02065 23.1318V23.1212L6.02128 23.1118L6.02191 23.0955L6.02316 23.0742L6.02379 23.0604L6.02441 23.0485L6.02504 23.0341L6.02629 23.0172L6.02692 22.9997L6.02817 22.9859L6.0288 22.9734L6.02943 22.9596L6.03068 22.939L6.03131 22.9227L6.03193 22.9133L6.03256 22.902L6.03443 22.8782L6.03505 22.8601L6.03568 22.8526L6.03631 22.845L6.03819 22.8156L6.03944 22.7968V22.7924L6.04007 22.7874L6.04257 22.7505L6.04383 22.7342V22.7323C6.04508 22.7129 6.04634 22.6929 6.04822 22.6722V22.6716L6.04884 22.6603L6.05196 22.6159L6.05259 22.6127V22.609L6.05447 22.5902L6.05698 22.5589L6.0576 22.5526V22.5464L6.05948 22.5276L6.06136 22.5019L6.06199 22.4925L6.06262 22.4837L6.0645 22.4668L6.06636 22.4449L6.06699 22.4324L6.06824 22.4218L6.0695 22.4061L6.07138 22.3879L6.07263 22.3723L6.07388 22.3591L6.07514 22.346L6.07639 22.331L6.07827 22.3122L6.07952 22.2965L6.08076 22.2859L6.08139 22.2746L6.0839 22.2521L6.08515 22.2345L6.0864 22.2264L6.08703 22.2176L6.08954 22.1913L6.09142 22.1719L6.09204 22.1663L6.09267 22.1607L6.0958 22.1293L6.09767 22.1099L6.0983 22.1068V22.1043L6.10394 22.0561L6.10456 22.0479L6.10519 22.0442L6.11083 21.991V21.9885L6.11146 21.986L6.11332 21.9665L6.11708 21.9346L6.11771 21.9296L6.11834 21.924L6.12085 21.9039L6.12398 21.8783L6.12461 21.8701L6.12586 21.862L6.12772 21.8438L6.13023 21.8219L6.13211 21.8106L6.13337 21.8L6.13525 21.7837L6.13713 21.7655L6.13901 21.7518L6.14089 21.7386L6.14277 21.7242L6.14463 21.7092L6.14651 21.6923L6.14839 21.6766L6.15027 21.6647L6.15153 21.6528L6.15403 21.6328L6.15654 21.6153L6.15779 21.6059L6.15903 21.5965L6.16217 21.5733L6.16467 21.5533L6.16593 21.5464L6.16655 21.5401L6.17031 21.5132L6.17345 21.4919L6.17408 21.4875L6.17469 21.4844L6.17907 21.45L6.18221 21.4305V21.4287C6.18534 21.4092 6.18784 21.3905 6.19097 21.3717V21.3692L6.1941 21.3479L6.19912 21.3166L6.19974 21.3128L6.20037 21.3078L6.2035 21.2859L6.20725 21.2602L6.2085 21.254L6.20913 21.2464L6.21289 21.2264L6.21602 21.2045L6.21728 21.1957L6.21916 21.1851L6.22165 21.1669L6.22478 21.1488L6.22666 21.1369L6.22854 21.1243L6.23105 21.1081L6.23356 21.093L6.23606 21.0786L6.23856 21.063L6.24106 21.0498L6.24294 21.0373L6.24545 21.0204L6.24859 21.0023L6.25047 20.991L6.25235 20.9822L6.25546 20.9622L6.25922 20.9415L6.26048 20.9327L6.26173 20.9265L6.26549 20.9039L6.26986 20.8802L6.27049 20.8745L6.27112 20.8708L6.27613 20.8451L6.28052 20.8194L6.28115 20.8163V20.8157L6.28677 20.7843L6.29116 20.7587L6.29617 20.7311L6.30117 20.7048L6.3018 20.7029L6.30243 20.6986L6.30744 20.6729L6.31183 20.6497L6.31245 20.6453L6.31371 20.6378L6.31808 20.6146L6.32184 20.5946L6.32372 20.5877L6.3256 20.5771L6.32936 20.5564L6.33248 20.5395L6.33436 20.5301L6.33687 20.517L6.34063 20.4988L6.34376 20.4844L6.34627 20.4725L6.34939 20.4569L6.35252 20.4412L6.3544 20.4293L6.35754 20.4149L6.3613 20.3961L6.36379 20.3836L6.36567 20.3748L6.36943 20.3579L6.37382 20.336L6.3757 20.326L6.37695 20.3197L6.3807 20.301L6.38634 20.2759L6.38759 20.2684L6.38884 20.2646L6.39261 20.2458L6.39886 20.2158L6.40011 20.2108V20.2101L6.40325 20.1957L6.41201 20.1557L6.42329 20.105L6.42515 20.0962L6.43267 20.063L6.43643 20.0461L6.43706 20.0436L6.43831 20.0361L6.44457 20.0085L6.44833 19.9916L6.44958 19.9866L6.45209 19.9766L6.45771 19.9522L6.46085 19.9371L6.46273 19.9296L6.46586 19.9171L6.47088 19.8958L6.47337 19.8827L6.47587 19.8733L6.47964 19.857L6.48402 19.8388L6.48653 19.8282L6.48902 19.8169L6.49404 19.7975L6.4978 19.7825L6.49968 19.7743L6.50281 19.7612L6.50844 19.738L6.51157 19.7255L6.51282 19.7199L6.51596 19.7061L6.52284 19.6785L6.52534 19.6691L6.52597 19.666L6.5291 19.6522L6.53724 19.6197L6.53912 19.6128V19.6115L6.541 19.6053L6.55227 19.5602C6.55727 19.5408 6.56228 19.5208 6.56729 19.5013L6.57983 19.4544L6.58295 19.4418L6.59235 19.4074L6.59486 19.3961L6.59548 19.3936L6.5986 19.383L6.60612 19.3542L6.60926 19.3423L6.61051 19.3379L6.61425 19.3241L6.62115 19.2991L6.62366 19.2891L6.62554 19.2822L6.62991 19.2653L6.63618 19.244L6.63806 19.2352L6.64056 19.2271L6.64619 19.2064L6.6512 19.1883L6.65308 19.182L6.65559 19.172L6.66247 19.1482L6.66686 19.1331L6.66811 19.1281L6.67062 19.1187L6.67875 19.0893L6.68251 19.0774L6.68314 19.0749L6.68565 19.0668L6.69566 19.0311L6.69817 19.0211C6.71883 18.9503 6.73949 18.8802 6.76078 18.8101L6.76454 18.7975L6.77518 18.7618L6.77706 18.7556L6.77769 18.7537L6.78208 18.7393L6.79084 18.7099L6.79334 18.703L6.7946 18.6992L6.79961 18.6817L6.80774 18.656L6.80962 18.6498L6.81088 18.6447L6.81776 18.6235L6.82465 18.6022L6.82591 18.5971L6.82779 18.5915L6.83592 18.5658L6.84156 18.5477L6.84281 18.5446L6.84469 18.5389L6.85471 18.5082L6.85909 18.4932L6.85972 18.492L6.86097 18.4888C6.8998 18.3673 6.93987 18.2471 6.98119 18.1269L6.9887 18.1062L6.99935 18.0756L6.99998 18.0731L7.00061 18.0712L7.00811 18.0486L7.01752 18.023L7.01814 18.0211L7.01877 18.0192L7.02878 17.9917L7.03629 17.9704L7.03691 17.9679C7.99745 15.2704 9.58353 12.8684 11.6204 10.9379L11.6223 10.9354L11.6236 10.9348L11.6367 10.9223L11.658 10.9022L11.6618 10.8985L11.6649 10.896L11.6799 10.8816L11.6968 10.8659L11.7012 10.8615L11.7062 10.8572L11.7231 10.8409L11.7363 10.829L11.7407 10.8246L11.7475 10.8183L11.7663 10.8008L11.7764 10.7914L11.7801 10.7883L11.7889 10.7801L11.8102 10.7607L11.8171 10.7538L11.8202 10.7513L11.8308 10.7413L11.8534 10.7207L11.8584 10.7163L11.8596 10.715L11.8734 10.7025L11.8972 10.6806L11.8997 10.6787C11.9129 10.6668 11.9266 10.6543 11.9398 10.6418L11.941 10.6411L11.9535 10.6292L11.9799 10.6061L11.983 10.6036L11.9855 10.601L11.9968 10.591L12.0199 10.5704L12.0256 10.5647L12.0293 10.5616L12.0393 10.5528L12.0606 10.534L12.0694 10.5265L12.0738 10.5221L12.0813 10.5153L12.1007 10.4984L12.1132 10.4877L12.1182 10.4833L12.1239 10.4777L12.1414 10.4627L12.1577 10.4483L12.1627 10.4439L12.1665 10.4407L12.1821 10.427L12.204 10.4082L12.2071 10.4051L12.209 10.4038C15.368 7.66122 19.4913 6 23.9997 6C32.0991 6 38.9568 11.3612 41.2135 18.7255C41.2304 18.7812 41.2474 18.837 41.2636 18.8927L41.2705 18.9152L41.2762 18.9353L41.2768 18.9365L41.2774 18.939C41.2931 18.9929 41.3087 19.0474 41.3244 19.1018L41.3256 19.1062L41.3262 19.1087L41.3319 19.1281L41.3363 19.1457L41.3375 19.1482L41.3388 19.1532L41.3469 19.182C41.3513 19.1995 41.3563 19.2177 41.3613 19.2352L41.372 19.274L41.3757 19.2891L41.3826 19.3122L41.3838 19.3185L41.3851 19.3235L41.3901 19.3423L41.3945 19.3579L41.3951 19.3617L41.3976 19.3686L41.4045 19.3961C41.4095 19.4143 41.4139 19.4318 41.4189 19.45L41.4271 19.4819L41.4289 19.4894L41.4296 19.4919L41.4327 19.5038L41.4383 19.5245L41.4402 19.5326L41.4421 19.5395L41.4465 19.5577L41.4502 19.5715L41.4509 19.5752L41.4534 19.5852C41.4628 19.6216 41.4715 19.6572 41.4803 19.6929L41.4834 19.7042L41.484 19.708L41.4872 19.7199L41.4915 19.7386L41.4934 19.7474L41.4959 19.7562L41.5003 19.7743L41.5028 19.7862L41.5041 19.7906L41.5072 19.8038C41.5153 19.8376 41.5235 19.8714 41.531 19.9058L41.5348 19.9202L41.536 19.9253L41.5385 19.9371L41.5423 19.9534L41.5448 19.9634L41.5473 19.9741L41.551 19.9916L41.5535 20.0023L41.5542 20.0066L41.5586 20.0235L41.5636 20.0461L41.5686 20.0705L41.5742 20.0931V20.0943L41.5755 20.1006L41.5798 20.1206L41.5836 20.1369L41.5848 20.1438L41.5874 20.1557L41.5905 20.1701L41.593 20.1801L41.5961 20.1932L41.5993 20.2101L41.6011 20.2189L41.6024 20.2239L41.6068 20.2446L41.6112 20.2646L41.6143 20.2815L41.6205 20.311L41.6212 20.3135L41.6224 20.3197L41.6262 20.3373L41.6299 20.3542L41.6312 20.3629L41.6337 20.3748L41.6368 20.3874L41.6387 20.398L41.6418 20.413L41.645 20.4293L41.6468 20.4375L41.6475 20.4418L41.6525 20.4675L41.6562 20.4844L41.6587 20.4988L41.665 20.5289L41.6656 20.5326L41.6669 20.5395L41.67 20.5552L41.6731 20.5733L41.6757 20.5833L41.6775 20.5946L41.68 20.6065L41.6819 20.6165L41.685 20.6341L41.6882 20.6497L41.6894 20.6566L41.6901 20.6604L41.6963 20.6929L41.6982 20.7048L41.7007 20.718L41.7063 20.7487L41.7076 20.7537L41.7082 20.7605L41.7113 20.7749L41.7145 20.7925L41.7163 20.8044L41.7189 20.8157L41.7201 20.8263L41.722 20.8363L41.7257 20.8564L41.7282 20.8708L41.7295 20.8764L41.7301 20.8808L41.7376 20.9234L41.7383 20.9265L41.7401 20.939L41.7451 20.9691L41.7464 20.9747L41.7477 20.9822L41.7495 20.9954L41.7527 21.0129L41.7552 21.026L41.757 21.0373L41.7583 21.0473L41.7602 21.0573L41.7633 21.0793L41.7658 21.093L41.7664 21.0981C41.7696 21.1143 41.7721 21.13 41.7746 21.1469V21.1488L41.7771 21.1613L41.7815 21.1901L41.7827 21.1976L41.784 21.2045L41.7859 21.2176L41.7883 21.2346L41.7902 21.249L41.7921 21.2602L41.7934 21.269L41.7952 21.279L41.799 21.3034L41.8009 21.3166L41.8015 21.3203C41.804 21.3366 41.8059 21.3529 41.8084 21.3692L41.809 21.3723L41.8109 21.3848L41.8147 21.4118L41.8159 21.4205L41.8172 21.428L41.819 21.4406L41.8209 21.4568L41.8234 21.4725L41.8253 21.4844L41.8259 21.4925L41.8272 21.5013L41.8309 21.5282L41.8328 21.5401L41.8334 21.5432C41.8353 21.5602 41.8378 21.5764 41.8403 21.5933V21.5965L41.8422 21.609L41.8453 21.6347L41.8466 21.6447L41.8478 21.6528L41.8491 21.6641L41.8516 21.6797L41.8535 21.6967L41.8554 21.7092L41.856 21.7161L41.8572 21.7242L41.861 21.7536L41.8622 21.7655V21.7674C41.8648 21.7843 41.8666 21.8006 41.8685 21.8175L41.8691 21.8219L41.8704 21.8344L41.8735 21.8588L41.8748 21.8689L41.876 21.8783L41.8773 21.8895L41.8792 21.9039L41.881 21.9221L41.8823 21.9346L41.8829 21.9415L41.8842 21.9484L41.8873 21.9803L41.8885 21.991L41.8892 21.9928C41.891 22.0097 41.8929 22.026 41.8948 22.0429V22.0473L41.8967 22.0611L41.8986 22.0836L41.8998 22.0943L41.9011 22.1043L41.9023 22.1149L41.9036 22.1287L41.9054 22.1475L41.9067 22.1607L41.9073 22.1675L41.908 22.1738L41.9117 22.2076L41.9123 22.2176L41.913 22.2226L41.9167 22.264L41.9173 22.269L41.918 22.2746L41.9192 22.2884L41.9211 22.309L41.9224 22.3203L41.9236 22.331L41.9242 22.3422L41.9255 22.3541L41.9274 22.3735L41.9286 22.3879L41.9292 22.3942V22.3992L41.933 22.4362L41.9336 22.4449L41.9342 22.4562L41.9374 22.49L41.938 22.495V22.5019L41.9393 22.5169L41.9411 22.5351L41.9418 22.547L41.943 22.5589L41.9437 22.5702L41.9443 22.5808L41.9461 22.6002L41.9474 22.6159L41.948 22.6221V22.6259L41.9512 22.666L41.9518 22.6735L41.9524 22.6885L41.9549 22.7167V22.7223L41.9555 22.7305L41.9568 22.7455L41.9581 22.7624L41.9587 22.7743L41.9593 22.7874L41.9605 22.7987L41.9612 22.8075L41.9624 22.8275L41.9631 22.845L41.9637 22.8507V22.8532L41.9668 22.897V22.902L41.9681 22.9208L41.9693 22.9446L41.9699 22.9502L41.9706 22.9596L41.9712 22.9759L41.9718 22.9903L41.9725 23.0022L41.9737 23.0172L41.9743 23.0279V23.036L41.9756 23.0548L41.9762 23.0742L41.9768 23.0805C41.9775 23.0961 41.9781 23.1118 41.9787 23.1274L41.9793 23.1318L41.98 23.1531L41.9812 23.1732V23.1788L41.9818 23.1894L41.9825 23.2063L41.9831 23.2189L41.9837 23.2308L41.9843 23.247L41.985 23.2583V23.2646L41.9856 23.2821L41.9869 23.3047L41.9875 23.3309L41.9887 23.356V23.3623L41.9894 23.3854L41.99 23.4017V23.408L41.9906 23.4205L41.9912 23.4374V23.448L41.9919 23.4593L41.9925 23.4781V23.4894L41.9931 23.4938V23.5094L41.9937 23.5357L41.995 23.5814L41.9956 23.5939V23.619L41.9962 23.6321V23.6371L41.9969 23.6515V23.6697V23.6778V23.6885L41.9975 23.7098V23.7217L41.9981 23.7242V23.7354ZM16.4939 33.3921L20.2427 29.6433L14.5997 24.0003L20.2427 18.3573L16.4939 14.6079C18.5514 12.9611 21.1613 11.9755 23.9997 11.9755C28.2789 11.9755 32.0396 14.2159 34.1705 17.5865L27.7567 24.0003L34.1705 30.4141C32.0396 33.7847 28.2789 36.0252 23.9997 36.0252C21.1613 36.0252 18.5514 35.0396 16.4939 33.3921Z" fill="url(#paint0_linear_1_16)"/>
<path d="M70.9176 21.6562H67.1847C67.1165 21.1733 66.9773 20.7443 66.767 20.3693C66.5568 19.9886 66.2869 19.6648 65.9574 19.3977C65.6278 19.1307 65.2472 18.9261 64.8153 18.7841C64.3892 18.642 63.9261 18.571 63.4261 18.571C62.5227 18.571 61.7358 18.7955 61.0653 19.2443C60.3949 19.6875 59.875 20.3352 59.5057 21.1875C59.1364 22.0341 58.9517 23.0625 58.9517 24.2727C58.9517 25.517 59.1364 26.5625 59.5057 27.4091C59.8807 28.2557 60.4034 28.8949 61.0739 29.3267C61.7443 29.7585 62.5199 29.9744 63.4006 29.9744C63.8949 29.9744 64.3523 29.9091 64.7727 29.7784C65.1989 29.6477 65.5767 29.4574 65.9062 29.2074C66.2358 28.9517 66.5085 28.642 66.7244 28.2784C66.946 27.9148 67.0994 27.5 67.1847 27.0341L70.9176 27.0511C70.821 27.8523 70.5795 28.625 70.1932 29.3693C69.8125 30.108 69.2983 30.7699 68.6506 31.3551C68.0085 31.9347 67.2415 32.3949 66.3494 32.7358C65.4631 33.071 64.4602 33.2386 63.3409 33.2386C61.7841 33.2386 60.392 32.8864 59.1648 32.1818C57.9432 31.4773 56.9773 30.4574 56.267 29.1222C55.5625 27.7869 55.2102 26.1705 55.2102 24.2727C55.2102 22.3693 55.5682 20.75 56.2841 19.4148C57 18.0795 57.9716 17.0625 59.1989 16.3636C60.4261 15.6591 61.8068 15.3068 63.3409 15.3068C64.3523 15.3068 65.2898 15.4489 66.1534 15.733C67.0227 16.017 67.7926 16.4318 68.4631 16.9773C69.1335 17.517 69.679 18.179 70.0994 18.9631C70.5256 19.7472 70.7983 20.6449 70.9176 21.6562ZM79.4105 33.2557C78.0866 33.2557 76.9418 32.9744 75.9759 32.4119C75.0156 31.8437 74.2741 31.054 73.7514 30.0426C73.2287 29.0256 72.9673 27.8466 72.9673 26.5057C72.9673 25.1534 73.2287 23.9716 73.7514 22.9602C74.2741 21.9432 75.0156 21.1534 75.9759 20.5909C76.9418 20.0227 78.0866 19.7386 79.4105 19.7386C80.7344 19.7386 81.8764 20.0227 82.8366 20.5909C83.8026 21.1534 84.5469 21.9432 85.0696 22.9602C85.5923 23.9716 85.8537 25.1534 85.8537 26.5057C85.8537 27.8466 85.5923 29.0256 85.0696 30.0426C84.5469 31.054 83.8026 31.8437 82.8366 32.4119C81.8764 32.9744 80.7344 33.2557 79.4105 33.2557ZM79.4276 30.4432C80.0298 30.4432 80.5327 30.2727 80.9361 29.9318C81.3395 29.5852 81.6435 29.1136 81.848 28.517C82.0582 27.9205 82.1634 27.2415 82.1634 26.4801C82.1634 25.7188 82.0582 25.0398 81.848 24.4432C81.6435 23.8466 81.3395 23.375 80.9361 23.0284C80.5327 22.6818 80.0298 22.5085 79.4276 22.5085C78.8196 22.5085 78.3082 22.6818 77.8935 23.0284C77.4844 23.375 77.1747 23.8466 76.9645 24.4432C76.7599 25.0398 76.6577 25.7188 76.6577 26.4801C76.6577 27.2415 76.7599 27.9205 76.9645 28.517C77.1747 29.1136 77.4844 29.5852 77.8935 29.9318C78.3082 30.2727 78.8196 30.4432 79.4276 30.4432ZM91.8452 25.4318V33H88.2145V19.9091H91.6747V22.2188H91.8281C92.1179 21.4574 92.6037 20.8551 93.2855 20.4119C93.9673 19.9631 94.794 19.7386 95.7656 19.7386C96.6747 19.7386 97.4673 19.9375 98.1435 20.3352C98.8196 20.733 99.3452 21.3011 99.7202 22.0398C100.095 22.7727 100.283 23.6477 100.283 24.6648V33H96.652V25.3125C96.6577 24.5114 96.4531 23.8864 96.0384 23.4375C95.6236 22.983 95.0526 22.7557 94.3253 22.7557C93.8366 22.7557 93.4048 22.8608 93.0298 23.071C92.6605 23.2812 92.3707 23.5881 92.1605 23.9915C91.956 24.3892 91.8509 24.8693 91.8452 25.4318ZM110.107 19.9091V22.6364H102.224V19.9091H110.107ZM104.013 16.7727H107.644V28.9773C107.644 29.3125 107.695 29.5739 107.798 29.7614C107.9 29.9432 108.042 30.071 108.224 30.1449C108.411 30.2187 108.627 30.2557 108.871 30.2557C109.042 30.2557 109.212 30.2415 109.383 30.2131C109.553 30.179 109.684 30.1534 109.775 30.1364L110.346 32.8381C110.164 32.8949 109.908 32.9602 109.579 33.0341C109.249 33.1136 108.849 33.1619 108.377 33.179C107.502 33.2131 106.735 33.0966 106.076 32.8295C105.423 32.5625 104.914 32.1477 104.55 31.5852C104.187 31.0227 104.008 30.3125 104.013 29.4545V16.7727ZM112.472 33V19.9091H115.992V22.1932H116.129C116.367 21.3807 116.768 20.767 117.33 20.3523C117.893 19.9318 118.54 19.7216 119.273 19.7216C119.455 19.7216 119.651 19.733 119.862 19.7557C120.072 19.7784 120.256 19.8097 120.415 19.8494V23.071C120.245 23.0199 120.009 22.9744 119.708 22.9347C119.407 22.8949 119.131 22.875 118.881 22.875C118.347 22.875 117.87 22.9915 117.45 23.2244C117.035 23.4517 116.705 23.7699 116.461 24.179C116.222 24.5881 116.103 25.0597 116.103 25.5938V33H112.472ZM122.293 33V19.9091H125.923V33H122.293ZM124.116 18.2216C123.577 18.2216 123.114 18.0426 122.727 17.6847C122.347 17.321 122.156 16.8864 122.156 16.3807C122.156 15.8807 122.347 15.4517 122.727 15.0938C123.114 14.7301 123.577 14.5483 124.116 14.5483C124.656 14.5483 125.116 14.7301 125.497 15.0938C125.884 15.4517 126.077 15.8807 126.077 16.3807C126.077 16.8864 125.884 17.321 125.497 17.6847C125.116 18.0426 124.656 18.2216 124.116 18.2216ZM128.9 33V15.5455H132.531V22.108H132.641C132.8 21.7557 133.031 21.3977 133.332 21.0341C133.638 20.6648 134.036 20.358 134.525 20.1136C135.019 19.8636 135.633 19.7386 136.366 19.7386C137.32 19.7386 138.201 19.9886 139.008 20.4886C139.815 20.983 140.46 21.7301 140.942 22.7301C141.425 23.7244 141.667 24.9716 141.667 26.4716C141.667 27.9318 141.431 29.1648 140.96 30.1705C140.494 31.1705 139.857 31.929 139.05 32.446C138.249 32.9574 137.352 33.2131 136.357 33.2131C135.653 33.2131 135.053 33.0966 134.559 32.8636C134.07 32.6307 133.67 32.3381 133.357 31.9858C133.045 31.6278 132.806 31.267 132.641 30.9034H132.479V33H128.9ZM132.454 26.4545C132.454 27.233 132.562 27.9119 132.778 28.4915C132.994 29.071 133.306 29.5227 133.715 29.8466C134.124 30.1648 134.621 30.3239 135.207 30.3239C135.798 30.3239 136.298 30.1619 136.707 29.8381C137.116 29.5085 137.425 29.054 137.636 28.4744C137.852 27.8892 137.96 27.2159 137.96 26.4545C137.96 25.6989 137.854 25.0341 137.644 24.4602C137.434 23.8864 137.124 23.4375 136.715 23.1136C136.306 22.7898 135.803 22.6278 135.207 22.6278C134.616 22.6278 134.116 22.7841 133.707 23.0966C133.303 23.4091 132.994 23.8523 132.778 24.4261C132.562 25 132.454 25.6761 132.454 26.4545ZM152.484 27.4261V19.9091H156.115V33H152.629V30.6222H152.493C152.197 31.3892 151.706 32.0057 151.018 32.4716C150.337 32.9375 149.504 33.1705 148.521 33.1705C147.646 33.1705 146.876 32.9716 146.212 32.5739C145.547 32.1761 145.027 31.6108 144.652 30.8778C144.283 30.1449 144.095 29.267 144.089 28.2443V19.9091H147.72V27.5966C147.726 28.3693 147.933 28.9801 148.342 29.429C148.751 29.8778 149.3 30.1023 149.987 30.1023C150.425 30.1023 150.834 30.0028 151.214 29.804C151.595 29.5994 151.902 29.2983 152.135 28.9006C152.374 28.5028 152.49 28.0114 152.484 27.4261ZM165.982 19.9091V22.6364H158.099V19.9091H165.982ZM159.888 16.7727H163.519V28.9773C163.519 29.3125 163.57 29.5739 163.673 29.7614C163.775 29.9432 163.917 30.071 164.099 30.1449C164.286 30.2187 164.502 30.2557 164.746 30.2557C164.917 30.2557 165.087 30.2415 165.258 30.2131C165.428 30.179 165.559 30.1534 165.65 30.1364L166.221 32.8381C166.039 32.8949 165.783 32.9602 165.454 33.0341C165.124 33.1136 164.724 33.1619 164.252 33.179C163.377 33.2131 162.61 33.0966 161.951 32.8295C161.298 32.5625 160.789 32.1477 160.425 31.5852C160.062 31.0227 159.883 30.3125 159.888 29.4545V16.7727ZM174.173 33.2557C172.826 33.2557 171.667 32.983 170.695 32.4375C169.729 31.8864 168.985 31.108 168.462 30.1023C167.94 29.0909 167.678 27.8949 167.678 26.5142C167.678 25.1676 167.94 23.9858 168.462 22.9688C168.985 21.9517 169.721 21.1591 170.67 20.5909C171.624 20.0227 172.744 19.7386 174.028 19.7386C174.891 19.7386 175.695 19.8778 176.44 20.1562C177.19 20.429 177.843 20.8409 178.4 21.392C178.962 21.9432 179.4 22.6364 179.712 23.4716C180.025 24.3011 180.181 25.2727 180.181 26.3864V27.3835H169.127V25.1335H176.763C176.763 24.6108 176.65 24.1477 176.423 23.7443C176.195 23.3409 175.88 23.0256 175.477 22.7983C175.079 22.5653 174.616 22.4489 174.087 22.4489C173.536 22.4489 173.048 22.5767 172.621 22.8324C172.201 23.0824 171.871 23.4205 171.633 23.8466C171.394 24.267 171.272 24.7358 171.266 25.2528V27.392C171.266 28.0398 171.386 28.5994 171.624 29.071C171.869 29.5426 172.212 29.9062 172.656 30.1619C173.099 30.4176 173.624 30.5455 174.232 30.5455C174.636 30.5455 175.005 30.4886 175.34 30.375C175.675 30.2614 175.962 30.0909 176.201 29.8636C176.44 29.6364 176.621 29.358 176.746 29.0284L180.104 29.25C179.934 30.0568 179.585 30.7614 179.056 31.3636C178.533 31.9602 177.857 32.4261 177.028 32.7614C176.204 33.0909 175.252 33.2557 174.173 33.2557ZM188.968 33.2386C187.695 33.2386 186.562 33.0199 185.567 32.5824C184.579 32.1392 183.798 31.5312 183.224 30.7585C182.656 29.9801 182.363 29.0824 182.346 28.0653H186.062C186.085 28.4915 186.224 28.8665 186.479 29.1903C186.741 29.5085 187.087 29.7557 187.519 29.9318C187.951 30.108 188.437 30.196 188.977 30.196C189.539 30.196 190.036 30.0966 190.468 29.8977C190.9 29.6989 191.238 29.4233 191.482 29.071C191.727 28.7187 191.849 28.3125 191.849 27.8523C191.849 27.3864 191.718 26.9744 191.457 26.6165C191.201 26.2528 190.832 25.9687 190.349 25.7642C189.871 25.5597 189.303 25.4574 188.644 25.4574H187.016V22.7472H188.644C189.201 22.7472 189.692 22.6506 190.119 22.4574C190.55 22.2642 190.886 21.9972 191.124 21.6562C191.363 21.3097 191.482 20.9062 191.482 20.446C191.482 20.0085 191.377 19.625 191.167 19.2955C190.962 18.9602 190.673 18.6989 190.298 18.5114C189.928 18.3239 189.496 18.2301 189.002 18.2301C188.502 18.2301 188.045 18.321 187.63 18.5028C187.215 18.679 186.883 18.9318 186.633 19.2614C186.383 19.5909 186.249 19.9773 186.232 20.4205H182.695C182.712 19.4148 182.999 18.5284 183.556 17.7614C184.113 16.9943 184.863 16.3949 185.806 15.9631C186.755 15.5256 187.826 15.3068 189.019 15.3068C190.224 15.3068 191.278 15.5256 192.181 15.9631C193.085 16.4006 193.786 16.9915 194.286 17.7358C194.792 18.4744 195.042 19.304 195.036 20.2244C195.042 21.2017 194.738 22.017 194.124 22.6705C193.516 23.3239 192.724 23.7386 191.746 23.9148V24.0511C193.031 24.2159 194.008 24.6619 194.678 25.3892C195.354 26.1108 195.69 27.0142 195.684 28.0994C195.69 29.0938 195.403 29.9773 194.823 30.75C194.249 31.5227 193.457 32.1307 192.445 32.5739C191.434 33.017 190.275 33.2386 188.968 33.2386Z" fill="url(#paint1_linear_1_16)"/>
<defs>
<linearGradient id="paint0_linear_1_16" x1="42" y1="24" x2="6" y2="24" gradientUnits="userSpaceOnUse">
<stop stop-color="#2AF598"/>
<stop offset="1" stop-color="#009EFD"/>
</linearGradient>
<linearGradient id="paint1_linear_1_16" x1="54" y1="24" x2="197" y2="24" gradientUnits="userSpaceOnUse">
<stop stop-color="#2AF598"/>
<stop offset="1" stop-color="#009EFD"/>
</linearGradient>
</defs>
</svg>
