<svg width="24" height="24" viewBox="0 0 24 24" fill="none" xmlns="http://www.w3.org/2000/svg">
<path d="M23.5385 4.49488C22.6632 4.87886 21.7303 5.13335 20.758 5.25693C21.7584 4.65965 22.522 3.72105 22.8809 2.58973C21.9482 3.14583 20.9184 3.53863 19.8209 3.75783C18.9353 2.81482 17.673 2.23077 16.296 2.23077C13.6244 2.23077 11.4735 4.39925 11.4735 7.05764C11.4735 7.44012 11.5059 7.80791 11.5853 8.15805C7.5735 7.9624 4.0236 6.03959 1.63887 3.11052C1.22253 3.83286 0.978318 4.65965 0.978318 5.5497C0.978318 7.22093 1.83894 8.70237 3.12179 9.56006C2.3465 9.54535 1.5859 9.32026 0.941538 8.96571C0.941538 8.98042 0.941538 8.99955 0.941538 9.01868C0.941538 11.3637 2.61425 13.3115 4.80774 13.7602C4.41493 13.8676 3.98682 13.9191 3.54255 13.9191C3.23359 13.9191 2.9217 13.9014 2.62896 13.8367C3.2542 15.7477 5.02841 17.1527 7.13804 17.1983C5.49624 18.4826 3.4116 19.2564 1.15486 19.2564C0.759116 19.2564 0.379558 19.2388 0 19.1902C2.13759 20.5686 4.67092 21.3558 7.40286 21.3558C16.2827 21.3558 21.1375 14 21.1375 7.62402C21.1375 7.41071 21.1302 7.20474 21.1198 7.00026C22.0776 6.32058 22.8823 5.47173 23.5385 4.49488Z" fill="white"/>
</svg>
